<svg width="19" height="11" viewBox="0 0 19 11" fill="none" xmlns="http://www.w3.org/2000/svg">
<path d="M17.6345 2.25419C17.3541 1.81307 16.9498 1.41334 16.4442 1.07736C15.9383 0.740374 15.3417 0.47258 14.6871 0.288534C14.0082 0.0969329 13.2801 -0.00113958 12.545 9.99014e-06C11.5137 9.99014e-06 10.5075 0.191886 9.63308 0.554317C9.4239 0.641017 9.22517 0.736244 9.0369 0.839999C8.84863 0.736244 8.6499 0.641017 8.44072 0.554317C7.56631 0.191886 6.56012 9.99014e-06 5.52883 9.99014e-06C4.78621 9.99014e-06 4.0666 0.0966585 3.38675 0.288534C2.7299 0.473303 2.1379 0.739087 1.62957 1.07736C1.12333 1.41296 0.718931 1.81279 0.439294 2.25419C0.148523 2.71327 0 3.20078 0 3.7025C0 4.17579 0.142248 4.66898 0.424651 5.1707C0.661033 5.58999 0.999916 6.02491 1.43293 6.46409C2.11907 7.1591 3.06251 7.88397 4.23395 8.61878C6.17521 9.83684 8.09765 10.6782 8.17923 10.7124L8.67501 10.9284C8.89465 11.0236 9.17706 11.0236 9.3967 10.9284L9.89248 10.7124C9.97406 10.6768 11.8944 9.83684 13.8378 8.61878C15.0092 7.88397 15.9526 7.1591 16.6388 6.46409C17.0718 6.02491 17.4128 5.58999 17.6471 5.1707C17.9295 4.66898 18.0717 4.17579 18.0717 3.7025C18.0738 3.20078 17.9253 2.71327 17.6345 2.25419ZM9.0369 9.80414C9.0369 9.80414 1.58982 6.56216 1.58982 3.7025C1.58982 2.25419 3.35328 1.0802 5.52883 1.0802C7.05799 1.0802 8.38423 1.66009 9.0369 2.50718C9.68956 1.66009 11.0158 1.0802 12.545 1.0802C14.7205 1.0802 16.484 2.25419 16.484 3.7025C16.484 6.56216 9.0369 9.80414 9.0369 9.80414Z" fill="#2F27CE"/>
</svg>
